<svg width="25" height="25" viewBox="0 0 25 25" fill="none" xmlns="http://www.w3.org/2000/svg">
<g clip-path="url(#clip0)">
<path d="M24.1264 12.7339C24.1264 11.7097 24.0443 10.9622 23.8666 10.1871H12.3094V14.81H19.0932C18.9565 15.9589 18.2179 17.689 16.5766 18.8516L16.5536 19.0064L20.2078 21.8712L20.461 21.8968C22.786 19.7237 24.1264 16.5264 24.1264 12.7339Z" fill="#4285F4"/>
<path d="M12.3094 24.9141C15.6329 24.9141 18.423 23.8068 20.461 21.8967L16.5766 18.8516C15.5372 19.5852 14.1421 20.0973 12.3094 20.0973C9.05429 20.0973 6.29153 17.9243 5.30668 14.9208L5.16233 14.9332L1.36268 17.909L1.31299 18.0488C3.33718 22.1181 7.49503 24.9141 12.3094 24.9141Z" fill="#34A853"/>
<path d="M5.30667 14.9208C5.04681 14.1457 4.89642 13.3152 4.89642 12.457C4.89642 11.5988 5.04681 10.7684 5.293 9.99331L5.28611 9.82823L1.43885 6.80457L1.31297 6.86516C0.478704 8.5538 0 10.4501 0 12.457C0 14.464 0.478704 16.3602 1.31297 18.0488L5.30667 14.9208Z" fill="#FBBC05"/>
<path d="M12.3094 4.8167C14.6208 4.8167 16.18 5.8271 17.069 6.67147L20.543 3.23884C18.4094 1.23187 15.6329 0 12.3094 0C7.49503 0 3.33718 2.7959 1.31299 6.86517L5.29301 9.99332C6.29153 6.98979 9.05429 4.8167 12.3094 4.8167Z" fill="#EB4335"/>
</g>
<defs>
<clipPath id="clip0">
<rect width="24.1379" height="25" fill="white"/>
</clipPath>
</defs>
</svg>
